<mxfile host="app.diagrams.net" modified="2023-10-30T05:13:25.907Z" agent="Mozilla/5.0 (X11; Ubuntu; Linux x86_64; rv:109.0) Gecko/20100101 Firefox/119.0" etag="fxz7rjrDVJYSD5GHj3Q_" version="22.0.8" type="device">
  <diagram name="Page-1" id="SyVbsEh8TOmzzizSr3sB">
    <mxGraphModel dx="1687" dy="845" grid="1" gridSize="10" guides="1" tooltips="1" connect="1" arrows="1" fold="1" page="1" pageScale="1" pageWidth="850" pageHeight="1100" math="0" shadow="0">
      <root>
        <mxCell id="0" />
        <mxCell id="1" parent="0" />
        <mxCell id="nLI1ZMZmBGTjpTrxNgDV-20" value="" style="group" vertex="1" connectable="0" parent="1">
          <mxGeometry x="30" y="230" width="1166" height="220" as="geometry" />
        </mxCell>
        <mxCell id="nLI1ZMZmBGTjpTrxNgDV-2" value="&lt;font style=&quot;font-size: 40px;&quot;&gt;Size&lt;/font&gt;" style="rounded=0;whiteSpace=wrap;html=1;container=0;" vertex="1" parent="nLI1ZMZmBGTjpTrxNgDV-20">
          <mxGeometry width="198.00000000000003" height="132" as="geometry" />
        </mxCell>
        <mxCell id="nLI1ZMZmBGTjpTrxNgDV-3" value="&lt;font style=&quot;font-size: 40px;&quot;&gt;OpCode&lt;/font&gt;" style="rounded=0;whiteSpace=wrap;html=1;container=0;" vertex="1" parent="nLI1ZMZmBGTjpTrxNgDV-20">
          <mxGeometry x="198.00000000000003" width="198.00000000000003" height="132" as="geometry" />
        </mxCell>
        <mxCell id="nLI1ZMZmBGTjpTrxNgDV-4" value="&lt;font style=&quot;font-size: 40px;&quot;&gt;Parameters&lt;/font&gt;" style="rounded=0;whiteSpace=wrap;html=1;container=0;" vertex="1" parent="nLI1ZMZmBGTjpTrxNgDV-20">
          <mxGeometry x="396.00000000000006" width="770.0000000000001" height="132" as="geometry" />
        </mxCell>
        <mxCell id="nLI1ZMZmBGTjpTrxNgDV-5" value="" style="endArrow=none;html=1;rounded=0;" edge="1" parent="nLI1ZMZmBGTjpTrxNgDV-20">
          <mxGeometry width="50" height="50" relative="1" as="geometry">
            <mxPoint y="198.00000000000003" as="sourcePoint" />
            <mxPoint x="198.00000000000003" y="198.00000000000003" as="targetPoint" />
          </mxGeometry>
        </mxCell>
        <mxCell id="nLI1ZMZmBGTjpTrxNgDV-8" value="&lt;font style=&quot;font-size: 30px;&quot;&gt;8 bits&lt;/font&gt;" style="edgeLabel;html=1;align=center;verticalAlign=middle;resizable=0;points=[];container=0;" vertex="1" connectable="0" parent="nLI1ZMZmBGTjpTrxNgDV-5">
          <mxGeometry x="-0.1037" relative="1" as="geometry">
            <mxPoint x="5" as="offset" />
          </mxGeometry>
        </mxCell>
        <mxCell id="nLI1ZMZmBGTjpTrxNgDV-6" value="" style="endArrow=none;html=1;rounded=0;" edge="1" parent="nLI1ZMZmBGTjpTrxNgDV-20">
          <mxGeometry width="50" height="50" relative="1" as="geometry">
            <mxPoint y="220.00000000000003" as="sourcePoint" />
            <mxPoint y="176" as="targetPoint" />
          </mxGeometry>
        </mxCell>
        <mxCell id="nLI1ZMZmBGTjpTrxNgDV-7" value="" style="endArrow=none;html=1;rounded=0;" edge="1" parent="nLI1ZMZmBGTjpTrxNgDV-20">
          <mxGeometry width="50" height="50" relative="1" as="geometry">
            <mxPoint x="198.00000000000003" y="220.00000000000003" as="sourcePoint" />
            <mxPoint x="198.00000000000003" y="176" as="targetPoint" />
          </mxGeometry>
        </mxCell>
        <mxCell id="nLI1ZMZmBGTjpTrxNgDV-9" value="" style="endArrow=none;html=1;rounded=0;" edge="1" parent="nLI1ZMZmBGTjpTrxNgDV-20">
          <mxGeometry width="50" height="50" relative="1" as="geometry">
            <mxPoint x="197.38400000000001" y="198.00000000000003" as="sourcePoint" />
            <mxPoint x="395.384" y="198.00000000000003" as="targetPoint" />
          </mxGeometry>
        </mxCell>
        <mxCell id="nLI1ZMZmBGTjpTrxNgDV-10" value="&lt;font style=&quot;font-size: 30px;&quot;&gt;8 bits&lt;/font&gt;" style="edgeLabel;html=1;align=center;verticalAlign=middle;resizable=0;points=[];container=0;" vertex="1" connectable="0" parent="nLI1ZMZmBGTjpTrxNgDV-9">
          <mxGeometry x="-0.1037" relative="1" as="geometry">
            <mxPoint x="5" as="offset" />
          </mxGeometry>
        </mxCell>
        <mxCell id="nLI1ZMZmBGTjpTrxNgDV-11" value="" style="endArrow=none;html=1;rounded=0;" edge="1" parent="nLI1ZMZmBGTjpTrxNgDV-20">
          <mxGeometry width="50" height="50" relative="1" as="geometry">
            <mxPoint x="197.38400000000001" y="220.00000000000003" as="sourcePoint" />
            <mxPoint x="197.38400000000001" y="176" as="targetPoint" />
          </mxGeometry>
        </mxCell>
        <mxCell id="nLI1ZMZmBGTjpTrxNgDV-12" value="" style="endArrow=none;html=1;rounded=0;" edge="1" parent="nLI1ZMZmBGTjpTrxNgDV-20">
          <mxGeometry width="50" height="50" relative="1" as="geometry">
            <mxPoint x="395.384" y="220.00000000000003" as="sourcePoint" />
            <mxPoint x="395.384" y="176" as="targetPoint" />
          </mxGeometry>
        </mxCell>
        <mxCell id="nLI1ZMZmBGTjpTrxNgDV-13" value="" style="endArrow=none;html=1;rounded=0;" edge="1" parent="nLI1ZMZmBGTjpTrxNgDV-20">
          <mxGeometry width="50" height="50" relative="1" as="geometry">
            <mxPoint x="396.00000000000006" y="198.00000000000003" as="sourcePoint" />
            <mxPoint x="1166" y="198.00000000000003" as="targetPoint" />
          </mxGeometry>
        </mxCell>
        <mxCell id="nLI1ZMZmBGTjpTrxNgDV-18" value="&lt;font style=&quot;font-size: 30px;&quot;&gt;0 - 40 bits&lt;/font&gt;" style="edgeLabel;html=1;align=center;verticalAlign=middle;resizable=0;points=[];container=0;" vertex="1" connectable="0" parent="nLI1ZMZmBGTjpTrxNgDV-13">
          <mxGeometry x="0.0033" y="1" relative="1" as="geometry">
            <mxPoint as="offset" />
          </mxGeometry>
        </mxCell>
        <mxCell id="nLI1ZMZmBGTjpTrxNgDV-15" value="" style="endArrow=none;html=1;rounded=0;" edge="1" parent="nLI1ZMZmBGTjpTrxNgDV-20">
          <mxGeometry width="50" height="50" relative="1" as="geometry">
            <mxPoint x="396.00000000000006" y="220.00000000000003" as="sourcePoint" />
            <mxPoint x="396.00000000000006" y="176" as="targetPoint" />
          </mxGeometry>
        </mxCell>
        <mxCell id="nLI1ZMZmBGTjpTrxNgDV-17" value="" style="endArrow=none;html=1;rounded=0;" edge="1" parent="nLI1ZMZmBGTjpTrxNgDV-20">
          <mxGeometry width="50" height="50" relative="1" as="geometry">
            <mxPoint x="1166" y="220.00000000000003" as="sourcePoint" />
            <mxPoint x="1166" y="176" as="targetPoint" />
          </mxGeometry>
        </mxCell>
      </root>
    </mxGraphModel>
  </diagram>
</mxfile>
